<svg width="143" height="80" viewBox="0 0 143 80" fill="none" xmlns="http://www.w3.org/2000/svg">
<path d="M14.3 4.04593e-06H128.7C136.586 4.04593e-06 143 3.576 143 7.968V56.032C143 60.424 136.586 64 128.7 64H107.25V80L61.8403 64H14.3C6.41354 64 0 60.424 0 56.032V7.968C0.0113525 5.85117 1.52344 3.82332 4.20439 2.32949C6.88533 0.835656 10.5161 -0.00212446 14.3 4.04593e-06Z" fill="black"/>
<path d="M44.986 51H37.881V36.349H21.76V51H14.655V14.936H21.76V29.489H37.881V14.936H44.986V51ZM63.8311 45.757C65.2031 45.757 66.6241 45.2833 68.0941 44.336L71.1321 49.432C69.9561 50.0853 68.7148 50.608 67.4081 51C66.1014 51.392 64.8601 51.588 63.6841 51.588C61.1361 51.588 58.9311 51.1143 57.0691 50.167C55.2398 49.187 53.8514 47.8313 52.9041 46.1C51.9568 44.336 51.4831 42.327 51.4831 40.073C51.4831 37.9823 52.0221 36.055 53.1001 34.291C54.2108 32.527 55.7134 31.1387 57.6081 30.126C59.5028 29.0807 61.5771 28.558 63.8311 28.558C66.9018 28.558 69.4171 29.4563 71.3771 31.253C73.3698 33.0497 74.6601 35.614 75.2481 38.946L59.5681 43.944C60.6134 45.1527 62.0344 45.757 63.8311 45.757ZM63.2921 33.899C61.7568 33.899 60.5318 34.4217 59.6171 35.467C58.7024 36.5123 58.2451 37.917 58.2451 39.681V40.122L67.6531 36.937C66.9671 34.9117 65.5134 33.899 63.2921 33.899ZM87.0931 12.339V51H80.2331V12.339H87.0931ZM101.018 12.339V51H94.1579V12.339H101.018ZM106.417 40.024C106.417 37.8353 106.923 35.8753 107.936 34.144C108.981 32.4127 110.435 31.057 112.297 30.077C114.191 29.0643 116.331 28.558 118.716 28.558C121.1 28.558 123.191 29.0643 124.988 30.077C126.817 31.057 128.222 32.4127 129.202 34.144C130.182 35.8753 130.672 37.8353 130.672 40.024C130.672 42.2127 130.182 44.189 129.202 45.953C128.222 47.717 126.817 49.1053 124.988 50.118C123.191 51.098 121.068 51.588 118.618 51.588C116.233 51.588 114.11 51.1307 112.248 50.216C110.418 49.2687 108.981 47.9293 107.936 46.198C106.923 44.4667 106.417 42.4087 106.417 40.024ZM113.326 40.073C113.326 41.7717 113.816 43.1927 114.796 44.336C115.776 45.4467 117.017 46.002 118.52 46.002C120.088 46.002 121.345 45.4467 122.293 44.336C123.273 43.2253 123.763 41.8043 123.763 40.073C123.763 38.3417 123.273 36.9207 122.293 35.81C121.345 34.6993 120.088 34.144 118.52 34.144C117.017 34.144 115.776 34.7157 114.796 35.859C113.816 36.9697 113.326 38.3743 113.326 40.073Z" fill="white"/>
</svg>
