<svg width="105" height="84" viewBox="0 0 105 84" fill="none" xmlns="http://www.w3.org/2000/svg">
<path d="M41.8409 42.927C42.8662 43.9523 44.5282 43.9523 45.5536 42.927L47.4091 41.0714C48.4345 40.046 48.4345 38.3841 47.4091 37.3587L41.5488 31.5L47.4075 25.6397C48.4329 24.6143 48.4329 22.9523 47.4075 21.927L45.552 20.0714C44.5266 19.046 42.8646 19.046 41.8392 20.0714L32.2678 29.6428C31.2424 30.6682 31.2424 32.3302 32.2678 33.3555L41.8409 42.927ZM57.5925 41.073L59.448 42.9286C60.4734 43.954 62.1354 43.954 63.1608 42.9286L72.7322 33.3572C73.7576 32.3318 73.7576 30.6698 72.7322 29.6445L63.1608 20.073C62.1354 19.0477 60.4734 19.0477 59.448 20.073L57.5925 21.9286C56.5671 22.954 56.5671 24.6159 57.5925 25.6413L63.4512 31.5L57.5925 37.3603C56.5671 38.3857 56.5671 40.0477 57.5925 41.073ZM102.375 68.25H62.5964C62.475 71.5001 60.183 73.5 57.225 73.5H47.25C44.1837 73.5 41.8327 70.6338 41.8737 68.25H2.625C1.18125 68.25 0 69.4313 0 70.875V73.5C0 79.275 4.725 84 10.5 84H94.5C100.275 84 105 79.275 105 73.5V70.875C105 69.4313 103.819 68.25 102.375 68.25ZM94.5 7.875C94.5 3.54375 90.9563 0 86.625 0H18.375C14.0437 0 10.5 3.54375 10.5 7.875V63H94.5V7.875ZM84 52.5H21V10.5H84V52.5Z" fill="#DEDEDE"/>
</svg>
