<svg width="84" height="84" viewBox="0 0 84 84" fill="none" xmlns="http://www.w3.org/2000/svg">
<path d="M74.6667 0H9.33333C4.2 0 0 4.2 0 9.33333V74.6667C0 79.8 4.2 84 9.33333 84H74.6667C79.8 84 84 79.8 84 74.6667V9.33333C84 4.2 79.8 0 74.6667 0ZM37.3333 23.3333H28V32.6667C28 37.8 23.8 42 18.6667 42C23.8 42 28 46.2 28 51.3333V60.6667H37.3333V70H28C22.8667 70 18.6667 65.8 18.6667 60.6667V56C18.6667 50.8667 14.4667 46.6667 9.33333 46.6667V37.3333C14.4667 37.3333 18.6667 33.1333 18.6667 28V23.3333C18.6667 18.2 22.8667 14 28 14H37.3333V23.3333ZM74.6667 46.6667C69.5333 46.6667 65.3333 50.8667 65.3333 56V60.6667C65.3333 65.8 61.1333 70 56 70H46.6667V60.6667H56V51.3333C56 46.2 60.2 42 65.3333 42C60.2 42 56 37.8 56 32.6667V23.3333H46.6667V14H56C61.1333 14 65.3333 18.2 65.3333 23.3333V28C65.3333 33.1333 69.5333 37.3333 74.6667 37.3333V46.6667Z" fill="#DEDEDE"/>
</svg>
