<svg width="94" height="84" viewBox="0 0 94 84" fill="none" xmlns="http://www.w3.org/2000/svg">
<path d="M84.5454 0H8.45455C3.80455 0 0 3.78 0 8.4V58.8C0 63.42 3.80455 67.2 8.45455 67.2H38.0455L29.5909 79.8V84H63.4091V79.8L54.9545 67.2H84.5454C89.1954 67.2 93 63.42 93 58.8V8.4C93 3.78 89.1954 0 84.5454 0ZM84.5454 50.4H8.45455V8.4H84.5454V50.4Z" fill="#DEDEDE"/>
<path d="M89.3897 19H71.6103C69.6174 19 68 20.5817 68 22.5382V64.4618C68 66.4149 69.6139 68 71.6103 68H89.3897C91.3826 68 93 66.4183 93 64.4635V22.5382C93 21.5998 92.6196 20.6999 91.9426 20.0363C91.2655 19.3728 90.3472 19 89.3897 19V19ZM78.6975 22.8924H82.3043C82.4797 22.8924 82.6253 23.0299 82.6253 23.2018C82.6253 23.3737 82.4797 23.5113 82.3025 23.5113H78.6975C78.5221 23.5113 78.3782 23.3737 78.3782 23.2018C78.3782 23.0299 78.5186 22.8924 78.694 22.8924H78.6975ZM76.1801 22.5382C76.3476 22.5382 76.5083 22.6034 76.6267 22.7195C76.7451 22.8355 76.8117 22.993 76.8117 23.1571C76.8117 23.3213 76.7451 23.4787 76.6267 23.5948C76.5083 23.7108 76.3476 23.776 76.1801 23.776C76.0126 23.776 75.852 23.7108 75.7336 23.5948C75.6151 23.4787 75.5486 23.3213 75.5486 23.1571C75.5486 22.993 75.6151 22.8355 75.7336 22.7195C75.852 22.6034 76.0126 22.5382 76.1801 22.5382V22.5382ZM80.5009 66.2326C80.1691 66.2326 79.8407 66.1686 79.5342 66.0442C79.2277 65.9198 78.9492 65.7374 78.7146 65.5075C78.4801 65.2776 78.294 65.0047 78.167 64.7043C78.0401 64.404 77.9747 64.082 77.9747 63.7569C77.9747 63.4318 78.0401 63.1099 78.167 62.8095C78.294 62.5091 78.4801 62.2362 78.7146 62.0063C78.9492 61.7764 79.2277 61.5941 79.5342 61.4697C79.8407 61.3453 80.1691 61.2812 80.5009 61.2812C81.1709 61.2812 81.8134 61.5421 82.2871 62.0063C82.7609 62.4706 83.027 63.1003 83.027 63.7569C83.027 64.4135 82.7609 65.0432 82.2871 65.5075C81.8134 65.9718 81.1709 66.2326 80.5009 66.2326ZM91.6457 59.1528C91.6457 59.2936 91.5889 59.4286 91.4877 59.5285C91.3864 59.6283 91.249 59.6849 91.1054 59.6858H69.8946C69.751 59.6849 69.6136 59.6283 69.5123 59.5285C69.4111 59.4286 69.3543 59.2936 69.3543 59.1528V27.6684C69.3543 27.3761 69.5964 27.1354 69.8946 27.1354H91.1036C91.4019 27.1354 91.6475 27.3761 91.6475 27.6684V59.1528H91.6457Z" fill="#DEDEDE" stroke="black" stroke-width="0.3"/>
<rect x="69" y="27" width="23" height="33" fill="#111111"/>
</svg>
