<svg width="84" height="84" viewBox="0 0 84 84" fill="none" xmlns="http://www.w3.org/2000/svg">
<g clip-path="url(#clip0)">
<path d="M15.3379 0C6.84138 0 0 6.84138 0 15.3379V68.6622C0 77.1587 6.84138 84.0001 15.3379 84.0001H44.2392V51.1613H35.5557V39.3383H44.2392V29.2373C44.2392 21.3014 49.3698 14.0149 61.1888 14.0149C65.9741 14.0149 69.5127 14.4743 69.5127 14.4743L69.2344 25.5151C69.2344 25.5151 65.6255 25.481 61.6875 25.481C57.4254 25.481 56.742 27.4447 56.742 30.7048V39.3384H69.573L69.0139 51.1614H56.742V84.0002H68.6621C77.1586 84.0002 84 77.1588 84 68.6623V15.338C84 6.84146 77.1586 8.4e-05 68.6621 8.4e-05H15.3378L15.3379 0Z" fill="#DEDEDE"/>
</g>
<defs>
<clipPath id="clip0">
<rect width="84" height="84" fill="white"/>
</clipPath>
</defs>
</svg>
