<svg width="84" height="84" viewBox="0 0 84 84" fill="none" xmlns="http://www.w3.org/2000/svg">
<path d="M75.6 73.5H67.2V27.5625L42 47.25L16.8 27.5625V73.5H8.4V10.5H13.44L42 32.8125L70.56 10.5H75.6V73.5ZM75.6 0H8.4C3.738 0 0 4.6725 0 10.5V73.5C0 76.2848 0.884997 78.9555 2.4603 80.9246C4.03561 82.8938 6.17218 84 8.4 84H75.6C77.8278 84 79.9644 82.8938 81.5397 80.9246C83.115 78.9555 84 76.2848 84 73.5V10.5C84 7.71523 83.115 5.04451 81.5397 3.07538C79.9644 1.10625 77.8278 0 75.6 0Z" fill="#DEDEDE"/>
</svg>
