<svg width="84" height="84" viewBox="0 0 84 84" fill="none" xmlns="http://www.w3.org/2000/svg">
<path d="M74.6629 45.8786V42.8953C76.0003 43.2786 77.4861 43.8561 77.4861 43.8561C80.7883 43.8561 82.2819 41.4647 80.8041 38.5417L78.7146 34.4074C79.7475 33.6645 80.0218 32.3179 79.2396 30.7704L76.8167 25.9785C77.9625 25.527 78.3654 24.3654 77.6738 22.9978L74.5907 16.8999C73.7074 15.1464 72.261 15.1464 71.3751 16.8999L68.2907 22.9978C67.6003 24.3641 68.0019 25.5283 69.1491 25.9785L66.7262 30.7704C65.9439 32.3192 66.2209 33.6645 67.2499 34.4074L65.1617 38.5417C63.6838 41.4647 65.1774 43.8561 68.4784 43.8561C68.4784 43.8561 69.9668 43.2786 71.3029 42.8953V45.4337C68.937 44.9949 66.6192 44.3276 64.3821 43.4413C61.3607 42.2404 56.2852 40.2349 51.8385 40.2034C51.8057 40.2034 35.3312 24.3326 35.3312 24.3326L15.6292 6.23193L2.625 14.2867V44.0175C6.79875 45.5584 16.8158 47.7476 26.0531 47.7476C31.0524 47.7476 35.9612 47.0966 40.6442 45.8091C41.811 45.4875 42.9529 45.0662 44.163 44.6212C46.6003 43.7222 49.1216 42.7942 51.744 42.7942H51.828C55.8587 42.8218 60.6546 44.7276 63.5171 45.8642C65.751 46.7527 68.3366 47.5704 71.3081 48.0364V53.1604H74.6629V48.3645C76.7419 48.4774 78.9639 48.4236 81.375 48.0849V45.7132C79.1505 46.015 76.8995 46.0704 74.6629 45.8786ZM22.1589 18.9422V22.5253L18.6309 20.6077L14.5884 22.7366L13.3691 18.9697L7.86975 21.0159L9.30956 16.8789L5.59781 15.5835L15.4626 9.38456L26.5177 19.7914L22.1589 18.9422Z" fill="#DEDEDE"/>
<path d="M28.875 12.9911H37.4548C37.9206 13.782 38.5851 14.4374 39.3825 14.8921C40.1798 15.3468 41.0821 15.5851 42 15.5833H47.25C50.1441 15.5833 52.5 13.2589 52.5 10.4003C52.5 7.54295 50.1441 5.2172 47.25 5.2172H46.5452C46.0794 4.42631 45.4149 3.77098 44.6175 3.31626C43.8202 2.86154 42.9179 2.62324 42 2.62501H28.875C25.9809 2.62501 23.625 4.95076 23.625 7.80807C23.625 10.6667 25.9809 12.9911 28.875 12.9911ZM28.875 5.2172H42C43.449 5.2172 44.625 6.37745 44.625 7.80938H47.25C48.699 7.80938 49.875 8.96964 49.875 10.4016C49.875 11.8335 48.699 12.9938 47.25 12.9938H42C40.551 12.9938 39.375 11.8335 39.375 10.4016H28.875C27.426 10.4016 26.25 9.24132 26.25 7.80938C26.25 6.37745 27.426 5.2172 28.875 5.2172Z" fill="#DEDEDE"/>
<path d="M42 20.7659C42 23.6245 44.3559 25.949 47.25 25.949H52.5C55.3941 25.949 57.75 23.6245 57.75 20.7659C57.75 19.8642 57.4954 19.0321 57.0846 18.2932C58.0148 19.0496 59.176 19.4646 60.375 19.4692H65.625C68.5191 19.4692 70.875 17.1447 70.875 14.2861C70.875 11.4288 68.5191 9.10303 65.625 9.10303H60.375C57.4809 9.10303 55.125 11.4288 55.125 14.2861C55.125 15.1865 55.3796 16.0212 55.7904 16.7602C54.8606 16.0028 53.6992 15.5873 52.5 15.5828H47.25C44.3559 15.5828 42 17.9099 42 20.7659ZM60.375 11.6952H65.625C67.074 11.6952 68.25 12.8555 68.25 14.2874C68.25 15.7193 67.074 16.8796 65.625 16.8796H60.375C58.926 16.8796 57.75 15.7193 57.75 14.2874C57.75 12.8555 58.926 11.6952 60.375 11.6952ZM47.25 18.175H52.5C53.949 18.175 55.125 19.3353 55.125 20.7672C55.125 22.1992 53.949 23.3594 52.5 23.3594H47.25C45.801 23.3594 44.625 22.1992 44.625 20.7672C44.625 19.3353 45.801 18.175 47.25 18.175Z" fill="#DEDEDE"/>
<path d="M40.3036 48.3032L30.7053 67.0142L32.3827 75.5639L49.7051 81.3756L70.1814 77.8227L72.1357 67.1087L62.9797 48.3032H40.3036ZM35.9422 74.7042L34.0981 74.086L32.7659 67.2977L40.0818 53.04C38.3047 59.9924 34.6822 70.6354 34.6822 70.6354L35.9422 74.7042ZM48.9058 79.0538L43.7988 77.341L45.2701 71.6211C43.2856 67.2255 41.8813 57.3949 41.2618 52.368L44.6782 59.7246L49.625 70.3729L48.9058 79.0538ZM68.4869 76.144L50.8693 79.2008L51.5452 71.0515L52.5427 70.9084L69.9005 68.4042L68.4869 76.144ZM52.2894 68.9804L51.2158 69.1339L46.0773 58.0709L42.443 50.247H61.742L69.6433 66.4748L52.2894 68.9804Z" fill="#DEDEDE"/>
<path d="M19.8485 66.025L25 67.385L24.6566 69L16.5859 66.875L8.51515 69L8.08586 67.385L13.2374 66.025L8 64.665L8.42929 63.05L16.5 65.175L24.5707 63.05L25 64.665L19.8485 66.025ZM19.9944 57.032C19.8571 56.845 19.6854 56.675 19.5051 56.5305C19.1187 56.165 18.6465 55.9015 18.2687 55.5105C17.3586 54.618 17.1783 53.139 17.7364 52C17.1783 52.1445 16.6545 52.459 16.2167 52.8075C14.6455 54.091 14.0187 56.335 14.7828 58.273C14.7828 58.3325 14.8172 58.4005 14.8172 58.477C14.8172 58.613 14.7227 58.732 14.6025 58.8C14.5106 58.8242 14.4131 58.8183 14.3249 58.783C14.2367 58.7478 14.1623 58.6851 14.1131 58.6045C13.4263 57.729 13.3146 56.471 13.7869 55.4595C12.7652 56.301 12.2071 57.712 12.3015 59.0465C12.3187 59.3525 12.3616 59.65 12.4646 59.956C12.5591 60.33 12.7136 60.6955 12.9111 61.0185C13.5551 62.081 14.697 62.846 15.9162 62.999C17.2212 63.169 18.6121 62.9225 19.6167 62.0215C20.7328 61.0015 21.1364 59.3695 20.5439 57.95L20.4581 57.8055C20.3379 57.525 20.1747 57.27 19.9687 57.0405L19.9944 57.032ZM18.0712 60.8995C17.8995 61.0525 17.6247 61.2055 17.4015 61.2735C16.7232 61.5115 16.0364 61.1715 15.6414 60.7635C16.3626 60.5935 16.7919 60.0495 16.9293 59.5055C17.0237 59.0125 16.8348 58.613 16.749 58.137C16.6803 57.6865 16.6889 57.2955 16.8606 56.8705C16.9722 57.1 17.0924 57.338 17.2384 57.525C17.7106 58.137 18.449 58.409 18.6035 59.225C18.6207 59.3355 18.6465 59.412 18.6465 59.5055C18.6465 60.0155 18.4404 60.5595 18.0626 60.8995" fill="#DEDEDE"/>
</svg>
