<svg width="84" height="84" viewBox="0 0 84 84" fill="none" xmlns="http://www.w3.org/2000/svg">
<path d="M42 31.584C39.9399 31.584 37.9261 32.1949 36.2132 33.3394C34.5003 34.4839 33.1652 36.1107 32.3769 38.014C31.5885 39.9172 31.3822 42.0116 31.7841 44.0321C32.186 46.0526 33.1781 47.9085 34.6348 49.3652C36.0915 50.8219 37.9474 51.814 39.9679 52.2159C41.9884 52.6178 44.0828 52.4115 45.986 51.6231C47.8893 50.8348 49.5161 49.4997 50.6606 47.7868C51.8051 46.0739 52.416 44.0601 52.416 42C52.416 40.6321 52.1466 39.2777 51.6231 38.014C51.0997 36.7502 50.3324 35.602 49.3652 34.6348C48.398 33.6676 47.2498 32.9003 45.986 32.3769C44.7223 31.8534 43.3678 31.584 42 31.584ZM83.706 21.294C83.6839 18.0506 83.0866 14.8368 81.942 11.802C81.099 9.58129 79.7946 7.56459 78.115 5.88498C76.4354 4.20536 74.4187 2.90101 72.198 2.058C69.1632 0.913348 65.9494 0.316096 62.706 0.294C57.288 -2.81632e-07 55.692 0 42 0C28.308 0 26.712 -2.81632e-07 21.294 0.294C18.0506 0.316096 14.8368 0.913348 11.802 2.058C9.58129 2.90101 7.56459 4.20536 5.88498 5.88498C4.20536 7.56459 2.90101 9.58129 2.058 11.802C0.913348 14.8368 0.316096 18.0506 0.294 21.294C-2.81632e-07 26.712 0 28.308 0 42C0 55.692 -2.81632e-07 57.288 0.294 62.706C0.339208 65.9608 0.935652 69.1845 2.058 72.24C2.89728 74.4505 4.20054 76.4556 5.88 78.12C7.55241 79.8097 9.57343 81.114 11.802 81.942C14.8368 83.0866 18.0506 83.6839 21.294 83.706C26.712 84 28.308 84 42 84C55.692 84 57.288 84 62.706 83.706C65.9494 83.6839 69.1632 83.0866 72.198 81.942C74.4266 81.114 76.4476 79.8097 78.12 78.12C79.7995 76.4556 81.1027 74.4505 81.942 72.24C83.0855 69.1903 83.6827 65.963 83.706 62.706C84 57.288 84 55.692 84 42C84 28.308 84 26.712 83.706 21.294ZM73.038 54.894C72.9032 57.4858 72.3501 60.0388 71.4 62.454C70.5846 64.4687 69.3725 66.2988 67.8357 67.8357C66.2988 69.3725 64.4687 70.5846 62.454 71.4C60.016 72.2971 57.4487 72.7935 54.852 72.87H29.148C26.5513 72.7935 23.984 72.2971 21.546 71.4C19.4632 70.626 17.5824 69.3912 16.044 67.788C14.5222 66.2812 13.3469 64.461 12.6 62.454C11.6993 60.0185 11.2165 57.4483 11.172 54.852V42V29.148C11.2165 26.5517 11.6993 23.9815 12.6 21.546C13.374 19.4632 14.6088 17.5824 16.212 16.044C17.7254 14.5304 19.5437 13.3564 21.546 12.6C23.984 11.7029 26.5513 11.2065 29.148 11.13H54.852C57.4487 11.2065 60.016 11.7029 62.454 12.6C64.5368 13.374 66.4176 14.6088 67.956 16.212C69.4778 17.7187 70.6531 19.539 71.4 21.546C72.2971 23.984 72.7935 26.5513 72.87 29.148V42C72.87 50.652 73.164 51.534 73.038 54.852V54.894ZM66.318 23.646C65.8179 22.2893 65.0295 21.0573 64.0071 20.0349C62.9847 19.0125 61.7527 18.2241 60.396 17.724C58.5332 17.0783 56.5712 16.7655 54.6 16.8H29.4C27.4187 16.8194 25.4565 17.1891 23.604 17.892C22.2681 18.3694 21.0491 19.1256 20.0281 20.1104C19.007 21.0953 18.2073 22.2862 17.682 23.604C17.0721 25.4745 16.7741 27.4327 16.8 29.4V54.6C16.8416 56.579 17.2106 58.5375 17.892 60.396C18.3921 61.7527 19.1805 62.9847 20.2029 64.0071C21.2253 65.0295 22.4573 65.8179 23.814 66.318C25.606 66.977 27.4917 67.3457 29.4 67.41H54.6C56.5813 67.3906 58.5435 67.0209 60.396 66.318C61.7527 65.8179 62.9847 65.0295 64.0071 64.0071C65.0295 62.9847 65.8179 61.7527 66.318 60.396C67.0209 58.5435 67.3906 56.5813 67.41 54.6V42V29.4C67.4112 27.4167 67.0408 25.4508 66.318 23.604V23.646ZM42 58.044C39.895 58.044 37.8108 57.6287 35.8666 56.8219C33.9224 56.0151 32.1565 54.8327 30.67 53.3423C29.1835 51.8519 28.0057 50.0829 27.204 48.1366C26.4023 46.1903 25.9925 44.1049 25.998 42C25.998 38.825 26.94 35.7214 28.7048 33.0821C30.4696 30.4428 32.9779 28.3864 35.912 27.1733C38.8461 25.9602 42.0741 25.6449 45.1875 26.2674C48.3009 26.8899 51.1596 28.4221 53.4017 30.6701C55.6438 32.9181 57.1685 35.7808 57.7828 38.8958C58.3971 42.0108 58.0734 45.238 56.8526 48.1689C55.6319 51.0998 53.5689 53.6027 50.925 55.3605C48.281 57.1184 45.175 58.0523 42 58.044ZM58.8 29.106C57.8716 29.0077 57.0123 28.5693 56.3879 27.8753C55.7634 27.1812 55.4179 26.2806 55.4179 25.347C55.4179 24.4134 55.7634 23.5128 56.3879 22.8187C57.0123 22.1247 57.8716 21.6863 58.8 21.588C59.7284 21.6863 60.5877 22.1247 61.2121 22.8187C61.8366 23.5128 62.1821 24.4134 62.1821 25.347C62.1821 26.2806 61.8366 27.1812 61.2121 27.8753C60.5877 28.5693 59.7284 29.0077 58.8 29.106Z" fill="#DEDEDE"/>
</svg>
