<svg width="84" height="84" viewBox="0 0 84 84" fill="none" xmlns="http://www.w3.org/2000/svg">
<path d="M70 26.3594C67.9583 27.2708 65.7526 27.8906 63.3828 28.2188C65.862 26.7604 67.5573 24.6276 68.4688 21.8203C66.099 23.2057 63.6562 24.1354 61.1406 24.6094C58.9167 22.2031 56.1276 21 52.7734 21C49.6016 21 46.8945 22.1211 44.6523 24.3633C42.4102 26.6055 41.2891 29.3125 41.2891 32.4844C41.2891 33.5417 41.3802 34.4167 41.5625 35.1094C36.8594 34.8542 32.4479 33.6693 28.3281 31.5547C24.2083 29.4401 20.7083 26.6146 17.8281 23.0781C16.7708 24.901 16.2422 26.8333 16.2422 28.875C16.2422 33.0312 17.901 36.2214 21.2188 38.4453C19.5052 38.4089 17.6823 37.9349 15.75 37.0234V37.1328C15.75 39.8672 16.6615 42.3008 18.4844 44.4336C20.3073 46.5664 22.5495 47.888 25.2109 48.3984C24.1536 48.6901 23.224 48.8359 22.4219 48.8359C21.9479 48.8359 21.237 48.763 20.2891 48.6172C21.0547 50.9141 22.4128 52.8099 24.3633 54.3047C26.3138 55.7995 28.5286 56.5651 31.0078 56.6016C26.7786 59.8828 22.0208 61.5234 16.7344 61.5234C15.7865 61.5234 14.875 61.4688 14 61.3594C19.3958 64.7865 25.2656 66.5 31.6094 66.5C35.6927 66.5 39.5208 65.8529 43.0938 64.5586C46.6667 63.2643 49.7292 61.5326 52.2812 59.3633C54.8333 57.194 57.0299 54.6966 58.8711 51.8711C60.7122 49.0456 62.0794 46.0924 62.9727 43.0117C63.8659 39.931 64.3125 36.8594 64.3125 33.7969C64.3125 33.1406 64.2943 32.6484 64.2578 32.3203C66.5547 30.6797 68.4688 28.6927 70 26.3594ZM84 15.75V68.25C84 72.5885 82.4596 76.2982 79.3789 79.3789C76.2982 82.4596 72.5885 84 68.25 84H15.75C11.4115 84 7.70182 82.4596 4.62109 79.3789C1.54036 76.2982 0 72.5885 0 68.25V15.75C0 11.4115 1.54036 7.70182 4.62109 4.62109C7.70182 1.54036 11.4115 0 15.75 0H68.25C72.5885 0 76.2982 1.54036 79.3789 4.62109C82.4596 7.70182 84 11.4115 84 15.75Z" fill="#DEDEDE"/>
</svg>
