<svg width="132" height="83" viewBox="0 0 132 83" fill="none" xmlns="http://www.w3.org/2000/svg">
<path d="M90.4594 48.4868V78.8241C90.4594 79.8969 90.0308 80.9258 89.2679 81.6843C88.505 82.4429 87.4703 82.8691 86.3914 82.8691H82.3235C81.2446 82.8691 80.2099 82.4429 79.447 81.6843C78.6841 80.9258 78.2555 79.8969 78.2555 78.8241V74.7791H21.3041V78.8241C21.3041 79.8969 20.8755 80.9258 20.1127 81.6843C19.3498 82.4429 18.3151 82.8691 17.2362 82.8691H13.1682C12.0893 82.8691 11.0546 82.4429 10.2917 81.6843C9.52886 80.9258 9.10027 79.8969 9.10027 78.8241V48.4868L4.0438 47.2329C3.16412 47.0138 2.38329 46.5086 1.82536 45.7978C1.26743 45.0869 0.964379 44.211 0.964355 43.3093L0.964355 40.3969C0.964355 39.8605 1.17865 39.346 1.56009 38.9668C1.94154 38.5875 2.45889 38.3744 2.99833 38.3744H10.6258L19.323 15.3099C19.9045 13.7676 20.9456 12.4384 22.3071 11.5002C23.6687 10.562 25.2858 10.0594 26.9423 10.0596H72.6173C74.2739 10.0594 75.891 10.562 77.2525 11.5002C78.6141 12.4384 79.6552 13.7676 80.2366 15.3099L88.9339 38.3744H96.5613C97.1008 38.3744 97.6181 38.5875 97.9996 38.9668C98.381 39.346 98.5953 39.8605 98.5953 40.3969V43.3093C98.5953 44.211 98.2922 45.0869 97.7343 45.7978C97.1764 46.5086 96.3955 47.0138 95.5159 47.2329L90.4594 48.4868ZM17.2362 54.5543V62.6442C17.2362 63.717 17.6648 64.7459 18.4277 65.5045C19.1905 66.263 20.2252 66.6892 21.3041 66.6892H34.5047C34.8559 66.6886 35.201 66.5976 35.5064 66.4251C35.8117 66.2525 36.067 66.0043 36.2472 65.7045C36.4274 65.4047 36.5265 65.0637 36.5348 64.7145C36.5431 64.3653 36.4603 64.02 36.2946 63.7121C33.0199 57.6042 26.6657 54.5543 17.2362 54.5543ZM82.3235 54.5543C72.898 54.5543 66.5439 57.6082 63.261 63.7121C63.0951 64.0203 63.0123 64.366 63.0208 64.7155C63.0293 65.065 63.1287 65.4063 63.3094 65.7062C63.4902 66.0061 63.7459 66.2543 64.0519 66.4266C64.3578 66.5989 64.7034 66.6893 65.055 66.6892H78.2555C79.3344 66.6892 80.3691 66.263 81.132 65.5045C81.8949 64.7459 82.3235 63.717 82.3235 62.6442V54.5543ZM25.3721 18.1495L19.022 37.0962C18.8184 37.7039 18.7629 38.3511 18.8601 38.9844C18.9572 39.6176 19.2043 40.2189 19.5808 40.7387C19.9574 41.2584 20.4527 41.6819 21.026 41.9741C21.5993 42.2663 22.2342 42.4189 22.8784 42.4194H76.6812C77.3255 42.4189 77.9604 42.2663 78.5337 41.9741C79.107 41.6819 79.6023 41.2584 79.9789 40.7387C80.3554 40.2189 80.6024 39.6176 80.6996 38.9844C80.7967 38.3511 80.7412 37.7039 80.5377 37.0962L74.1876 18.1495H25.3721Z" fill="#DEDEDE"/>
<rect x="98.5952" y="6.75" width="33.0952" height="13.2381" rx="1" fill="#DEDEDE"/>
<path d="M86.8572 14.2348C86.1905 13.8499 86.1905 12.8877 86.8572 12.5028L98.75 5.63642C99.4167 5.25152 100.25 5.73264 100.25 6.50244V20.2351C100.25 21.0049 99.4167 21.4861 98.75 21.1012L86.8572 14.2348Z" fill="#DEDEDE"/>
<rect x="105.214" y="0.130859" width="4.9643" height="82.7381" rx="1.5" fill="#DEDEDE"/>
</svg>
