<svg width="57" height="84" viewBox="0 0 57 84" fill="none" xmlns="http://www.w3.org/2000/svg">
<path d="M33.7501 0C30.5052 0.0129025 27.3968 1.30767 25.1023 3.6022C22.8077 5.89673 21.513 9.00507 21.5001 12.25C21.5001 18.977 27.0231 24.5 33.7501 24.5C40.4771 24.5 46.0001 18.977 46.0001 12.25C46.0001 5.523 40.4771 0 33.7501 0ZM33.7501 7C36.6901 7 39.0001 9.31 39.0001 12.25C39.0001 15.19 36.6901 17.5 33.7501 17.5C30.8101 17.5 28.5001 15.19 28.5001 12.25C28.5001 9.31 30.8101 7 33.7501 7ZM14.8291 22.75C13.9166 22.6906 13.0005 22.727 12.0956 22.8585C10.1943 23.1809 8.41614 24.0131 6.95058 25.2665C3.89158 27.8635 2.11358 31.9935 0.825578 38.0625C0.419578 40.019 0.542079 42.042 1.48358 43.6415C2.42858 45.241 3.90558 46.2105 5.20408 46.8125C7.81508 48.0165 10.3701 48.2475 11.7666 48.5625L13.4081 41.7795C11.3011 41.3035 9.13808 40.9185 8.15808 40.4705C7.66458 40.236 7.59808 40.0995 7.60858 40.1415C7.55535 39.9254 7.55535 39.6996 7.60858 39.4835C8.72858 34.181 10.3561 31.6225 11.5461 30.625C12.7361 29.6275 13.7196 29.463 15.9211 29.967L17.4541 23.079C16.5904 22.893 15.712 22.7829 14.8291 22.75ZM20.9541 23.8455L15.8126 47.25C15.2386 49.875 16.3201 52.7205 18.4376 54.3585L30.7961 63.9835L33.8586 84H40.9706L37.6876 62.8915C37.4193 61.1149 36.4797 59.509 35.0626 58.4045L22.7041 48.7795L26.3126 32.4835L29.9211 33.467L36.1546 39.487C38.1811 41.44 41.2296 41.902 43.8126 40.796L49.5001 38.395V84H56.5001V24.5H49.5001V30.8455L41.0791 34.4505L34.8421 28.4375C33.9883 27.6011 32.9337 26.9984 31.7796 26.6875L20.9541 23.8455ZM16.3586 58.1875L13.4046 67.046L4.65808 84H12.5331L19.6451 70.329C19.8201 69.986 19.9741 69.5905 20.0826 69.2335L22.2701 62.783L16.3586 58.1875Z" fill="#DEDEDE"/>
</svg>
