<svg width="84" height="84" viewBox="0 0 84 84" fill="none" xmlns="http://www.w3.org/2000/svg">
<path d="M16.4691 0.0205078C7.42082 0.0205078 0.0153809 7.42578 0.0153809 16.4742V67.5328C0.0153809 76.581 7.42065 83.9838 16.4691 83.9838H67.5277C76.576 83.9838 83.9787 76.5811 83.9787 67.5328V16.4742C83.9787 7.42595 76.576 0.0205078 67.5277 0.0205078H16.4691ZM20.6074 13.8761C24.9458 13.8761 27.6181 16.7242 27.7006 20.468C27.7006 24.1292 24.9457 27.0573 20.5235 27.0573H20.4421C16.1862 27.0573 13.4355 24.1293 13.4355 20.468C13.4355 16.7243 16.2695 13.8761 20.6073 13.8761H20.6074ZM57.9941 31.3742C66.3378 31.3742 72.5925 36.8276 72.5925 48.5468V70.4245H59.9124V50.0136C59.9124 44.8846 58.0773 41.3853 53.4884 41.3853C49.9853 41.3853 47.8972 43.7439 46.9805 46.0223C46.6455 46.8374 46.5632 47.9759 46.5632 49.1162V70.4245H33.8832C33.8832 70.4245 34.0496 35.849 33.8832 32.2689H46.5658V37.6722C48.2509 35.0724 51.265 31.3741 57.9941 31.3741V31.3742ZM14.1834 32.2717H26.8635V70.4247H14.1834V32.2717V32.2717Z" fill="#DEDEDE"/>
</svg>
