<svg width="84" height="84" viewBox="0 0 84 84" fill="none" xmlns="http://www.w3.org/2000/svg">
<rect width="84" height="84" rx="10" fill="#DEDEDE"/>
<path d="M45.5 27C48.2848 27 50.9555 28.1062 52.9246 30.0754C54.8938 32.0445 56 34.7152 56 37.5C56 38.4283 56.3687 39.3185 57.0251 39.9749C57.6815 40.6313 58.5717 41 59.5 41C60.4283 41 61.3185 40.6313 61.9749 39.9749C62.6313 39.3185 63 38.4283 63 37.5C63 32.8587 61.1563 28.4075 57.8744 25.1256C54.5925 21.8437 50.1413 20 45.5 20C44.5717 20 43.6815 20.3687 43.0251 21.0251C42.3687 21.6815 42 22.5717 42 23.5C42 24.4283 42.3687 25.3185 43.0251 25.9749C43.6815 26.6313 44.5717 27 45.5 27Z" fill="#070707"/>
<path d="M45.5 13C51.9978 13 58.2295 15.5812 62.8241 20.1759C67.4188 24.7705 70 31.0022 70 37.5C70 38.4283 70.3687 39.3185 71.0251 39.9749C71.6815 40.6312 72.5717 41 73.5 41C74.4283 41 75.3185 40.6312 75.9749 39.9749C76.6313 39.3185 77 38.4283 77 37.5C77 29.1457 73.6813 21.1335 67.7739 15.2261C61.8665 9.31874 53.8543 6 45.5 6C44.5717 6 43.6815 6.36875 43.0251 7.02513C42.3688 7.6815 42 8.57174 42 9.5C42 10.4283 42.3688 11.3185 43.0251 11.9749C43.6815 12.6313 44.5717 13 45.5 13ZM76.125 54.685C75.9325 54.1231 75.6002 53.6195 75.1593 53.2215C74.7185 52.8235 74.1836 52.5442 73.605 52.41L52.605 47.615C52.035 47.4858 51.4417 47.5013 50.8792 47.6603C50.3167 47.8192 49.8031 48.1165 49.385 48.525C48.895 48.98 48.86 49.015 46.585 53.355C39.0362 49.8766 32.9875 43.803 29.54 36.24C33.985 34 34.02 34 34.475 33.475C34.8835 33.0569 35.1808 32.5433 35.3397 31.9808C35.4987 31.4183 35.5142 30.825 35.385 30.255L30.59 9.5C30.4558 8.92144 30.1765 8.38655 29.7785 7.94569C29.3805 7.50483 28.8769 7.17251 28.315 6.98C27.4976 6.68806 26.6536 6.47705 25.795 6.35C24.9104 6.14488 24.0077 6.02765 23.1 6C18.83 6 14.7349 7.69625 11.7156 10.7156C8.69625 13.7349 7 17.83 7 22.1C7.01852 36.3895 12.7032 50.0884 22.8074 60.1926C32.9116 70.2968 46.6105 75.9815 60.9 76C63.0143 76 65.1079 75.5836 67.0612 74.7745C69.0145 73.9654 70.7894 72.7794 72.2844 71.2844C73.7794 69.7894 74.9654 68.0145 75.7745 66.0612C76.5836 64.1079 77 62.0143 77 59.9C77.0011 59.0091 76.9309 58.1196 76.79 57.24C76.6429 56.3706 76.4204 55.5158 76.125 54.685Z" fill="#070707"/>
</svg>
