<svg width="69" height="84" viewBox="0 0 69 84" fill="none" xmlns="http://www.w3.org/2000/svg">
<path d="M63.6923 21H63.1947L61.0385 47.25H47.5204C46.9123 44.2422 45.3918 41.7402 42.9591 39.7441C40.5264 37.748 37.7067 36.75 34.5 36.75C31.2933 36.75 28.4736 37.748 26.0409 39.7441C23.6082 41.7402 22.0877 44.2422 21.4796 47.25H7.96154L5.80529 21H5.30769C3.8149 21 2.55709 20.4941 1.53425 19.4824C0.511418 18.4707 0 17.2402 0 15.791C0 14.3418 0.511418 13.0977 1.53425 12.0586C2.55709 11.0195 3.8149 10.5 5.30769 10.5V5.25C5.30769 3.77344 5.81911 2.5293 6.84195 1.51758C7.86478 0.505859 9.1226 0 10.6154 0H58.3846C59.8221 0 61.0661 0.505859 62.1166 1.51758C63.1671 2.5293 63.6923 3.77344 63.6923 5.25V10.5C65.1298 10.5 66.3738 11.0195 67.4243 12.0586C68.4748 13.0977 69 14.3418 69 15.791C69 17.2402 68.4748 18.4707 67.4243 19.4824C66.3738 20.4941 65.1298 21 63.6923 21ZM21.4796 52.5C22.0877 55.5078 23.6082 58.0098 26.0409 60.0059C28.4736 62.002 31.2933 63 34.5 63C37.7067 63 40.5264 62.002 42.9591 60.0059C45.3918 58.0098 46.9123 55.5078 47.5204 52.5H60.6238L58.3846 78.75C58.1635 80.0625 57.5691 81.2656 56.6016 82.3594C55.634 83.4531 54.4591 84 53.0769 84H15.9231C14.5409 84 13.366 83.4531 12.3984 82.3594C11.4309 81.2656 10.8365 80.0625 10.6154 78.75L8.3762 52.5H21.4796Z" fill="#DEDEDE"/>
</svg>
