<svg width="64" height="64" viewBox="0 0 64 64" fill="none" xmlns="http://www.w3.org/2000/svg">
<circle cx="32" cy="32" r="32" fill="#1A1A1A"/>
<path d="M34.1073 45.9464V23.0078L44.3912 33.0293C45.213 33.8302 46.5617 33.8302 47.3836 33.0293C48.2055 32.2284 48.2055 30.9347 47.3836 30.1338L33.4962 16.6006C33.1025 16.2161 32.568 16 32.0105 16C31.4531 16 30.9186 16.2161 30.5249 16.6006L16.6164 30.1133C15.7945 30.9142 15.7945 32.2079 16.6164 33.0088C17.4383 33.8097 18.7659 33.8097 19.5878 33.0088L29.8927 23.0078V45.9464C29.8927 47.0759 30.841 48 32 48C33.159 48 34.1073 47.0759 34.1073 45.9464Z" fill="#B7B7B7"/>
</svg>
